{"title":"Level 90 Elite Tauren Chieftain Live BlizzCon 2014 WebRip HD 720","uid":11415453,"size":760676943,"categoryP":"video","categoryS":"hd___tv_shows","magnet":"?xt=urn:btih:68903722a77b80d6431e8e4a9efed9ac416b2c08&amp;dn=Level+90+Elite+Tauren+Chieftain+Live+BlizzCon+2014+WebRip+HD+720&amp;tr=udp%3A%2F%2Ftracker.openbittorrent.com%3A80&amp;tr=udp%3A%2F%2Fopen.demonii.com%3A1337&amp;tr=udp%3A%2F%2Ftracker.coppersurfer.tk%3A6969&amp;tr=udp%3A%2F%2Fexodus.desync.com%3A6969","seeders":2,"leechers":0,"uploader":"0x133","files":1,"time":1415573203,"description":"General\nComplete name                            : level90elitetaurenchieftain_live_blizzcon2014.0x133.mp4\nFormat                                   : MPEG-4\nFormat profile                           : Base Media / Version 2\nCodec ID                                 : mp42\nFile size                                : 725 MiB\nDuration                                 : 34mn 50s\nOverall bit rate mode                    : Variable\nOverall bit rate                         : 2 911 Kbps\n\nVideo\nID                                       : 2\nFormat                                   : AVC\nFormat/Info                              : Advanced Video Codec\nFormat profile                           : &lt;a class=&quot;__cf_email__&quot; href=&quot;/cdn-cgi/l/email-protection&quot; data-cfemail=&quot;a8e0c1cfc0e8e49c8698&quot;&gt;[email&amp;#160;protected]&lt;/a&gt;&lt;script cf-hash='f9e31' type=&quot;text/javascript&quot;&gt;\n/* &lt;![CDATA[ */!function(){try{var t=&quot;currentScript&quot;in document?document.currentScript:function(){for(var t=document.getElementsByTagName(&quot;script&quot;),e=t.length;e--;)if(t[e].getAttribute(&quot;cf-hash&quot;))return t[e]}();if(t&amp;&amp;t.previousSibling){var e,r,n,i,c=t.previousSibling,a=c.getAttribute(&quot;data-cfemail&quot;);if(a){for(e=&quot;&quot;,r=parseInt(a.substr(0,2),16),n=2;a.length-n;n+=2)i=parseInt(a.substr(n,2),16)^r,e+=String.fromCharCode(i);e=document.createTextNode(e),c.parentNode.replaceChild(e,c)}}}catch(u){}}();/* ]]&gt; */&lt;/script&gt;\nFormat settings, CABAC                   : Yes\nFormat settings, ReFrames                : 2 frames\nFormat settings, GOP                     : M=2, N=15\nCodec ID                                 : avc1\nCodec ID/Info                            : Advanced Video Coding\nDuration                                 : 34mn 50s\nBit rate mode                            : Variable\nBit rate                                 : 2 779 Kbps\nMaximum bit rate                         : 3 000 Kbps\nWidth                                    : 1 280 pixels\nHeight                                   : 720 pixels\nDisplay aspect ratio                     : 16:9\nFrame rate mode                          : Constant\nFrame rate                               : 29.970 fps\nColor space                              : YUV\nChroma subsampling                       : 4:2:0\nBit depth                                : 8 bits\nScan type                                : Progressive\nBits/(Pixel*Frame)                       : 0.101\nStream size                              : 692 MiB (95%)\nLanguage                                 : English\n\n\nAudio\nID                                       : 1\nFormat                                   : AAC\nFormat/Info                              : Advanced Audio Codec\nFormat profile                           : LC\nCodec ID                                 : 40\nDuration                                 : 34mn 50s\nBit rate mode                            : Constant\nBit rate                                 : 128 Kbps\nChannel(s)                               : 2 channels\nChannel positions                        : Front: L R\nSampling rate                            : 48.0 KHz\nCompression mode                         : Lossy\nStream size                              : 31.9 MiB (4%)\nLanguage                                 : English\n\nScreens: &lt;a href=&quot;\nhttp://bayimg.com/KADKHAAgl&quot; rel=&quot;nofollow&quot; target=&quot;_NEW&quot;&gt;\nhttp://bayimg.com/KADKHAAgl&lt;/a&gt; &lt;a href=&quot;\nhttp://bayimg.com/madkaAAGL&quot; rel=&quot;nofollow&quot; target=&quot;_NEW&quot;&gt;\nhttp://bayimg.com/madkaAAGL&lt;/a&gt; &lt;a href=&quot;\nhttp://bayimg.com/MAdKKAagl&quot; rel=&quot;nofollow&quot; target=&quot;_NEW&quot;&gt;\nhttp://bayimg.com/MAdKKAagl&lt;/a&gt; &lt;a href=&quot;\nhttp://bayimg.com/NadKmAaGL&quot; rel=&quot;nofollow&quot; target=&quot;_NEW&quot;&gt;\nhttp://bayimg.com/NadKmAaGL&lt;/a&gt;","torrent":{"xt":"urn:btih:68903722a77b80d6431e8e4a9efed9ac416b2c08","amp;dn":"Level+90+Elite+Tauren+Chieftain+Live+BlizzCon+2014+WebRip+HD+720","amp;tr":["udp%3A%2F%2Ftracker.openbittorrent.com%3A80","udp%3A%2F%2Fopen.demonii.com%3A1337","udp%3A%2F%2Ftracker.coppersurfer.tk%3A6969","udp%3A%2F%2Fexodus.desync.com%3A6969"],"infoHash":"68903722a77b80d6431e8e4a9efed9ac416b2c08","infoHashBuffer":{"type":"Buffer","data":[104,144,55,34,167,123,128,214,67,30,142,74,158,254,217,172,65,107,44,8]},"announce":[],"urlList":[]}}